<svg width="66px" height="115px" viewBox="0 0 66 115" version="1.1" xmlns="http://www.w3.org/2000/svg" xmlns:xlink="http://www.w3.org/1999/xlink">
    <title>Components</title>
    <g id="Components" stroke="none" stroke-width="1" fill="none" fill-rule="evenodd">
        <g id="Apple-TV" transform="translate(-1400.000000, -618.000000)" fill="#000000">
            <path d="M1411.81,683.043605 L1411.81,719.902796 C1415.04663,725.870361 1449.22326,725.505936 1453.81,719.902796 C1453.81,700.9105 1453.81,702.035901 1453.81,683.043605 C1438.6558,664.766389 1426.67531,696.774237 1411.81,683.043605" id="Fill-26-Copy" fill="#DA70D6"></path>
            <path d="M1413.81,680.300261 C1420.82922,684.682783 1427.33704,680.877253 1433.81,676.513403 C1426.80489,672.550087 1417.80402,673.752619 1413.81,680.300261" id="Fill-27-Copy" fill="#FFA500"></path>
            <path d="M1409.54658,618.242886 L1456.07259,618.242886 C1457.57808,618.242886 1458.81,619.59318 1458.81,621.242434 C1458.81,622.892592 1457.57808,624.242886 1456.07259,624.242886 L1409.54658,624.242886 C1408.04109,624.242886 1406.81,622.892592 1406.81,621.242434 C1406.81,619.59318 1408.04109,618.242886 1409.54658,618.242886" id="Fill-22"></path>
            <path d="M1409.54658,630.242886 L1456.07259,630.242886 C1457.57808,630.242886 1458.81,628.667544 1458.81,626.742359 C1458.81,624.817175 1457.57808,623.242886 1456.07259,623.242886 L1409.54658,623.242886 C1408.04109,623.242886 1406.81,624.817175 1406.81,626.742359 C1406.81,628.667544 1408.04109,630.242886 1409.54658,630.242886" id="Fill-23"></path>
            <path d="M1406.60729,631.242886 L1459.01334,631.242886 C1461.41349,631.242886 1461.40429,635.242886 1459.01334,635.242886 L1406.60729,635.242886 C1404.2155,635.242886 1404.20631,631.242886 1406.60729,631.242886" id="Fill-24"></path>
            <path d="M1447.44604,647 C1447.6928,649.718262 1448.26746,650.581188 1450.57604,654.142029 C1452.8838,657.70287 1457,658.557471 1457,687.442825 L1457,721.885865 C1451.75766,727.19753 1412.6997,727.542515 1409,721.885865 C1409,707.655452 1409,709.001172 1409,687.442825 C1409,665.884479 1413.11537,657.70287 1415.42396,654.142029 C1417.73254,650.581188 1418.30638,649.718262 1418.55313,647 L1447.44604,647 Z M1454.45108,636 L1411.54975,636 C1411.20956,639.731417 1410.42496,643.352157 1408.83241,645.805666 C1404.0781,653.131781 1400,661.930187 1400,691.533198 C1400,721.135278 1400,707.80932 1400,727.350897 C1405.08616,735.118792 1458.79266,734.643529 1466,727.350897 L1466,691.533198 C1466,651.868754 1460.34102,650.695013 1457.16676,645.805666 C1453.9925,640.915389 1454.78961,639.731417 1454.45108,636 L1454.45108,636 Z" id="Fill-25"></path>
        </g>
    </g>
</svg>